<?xml version="1.0" encoding="iso-8859-1"?>
<!-- Generator: Adobe Illustrator 16.0.0, SVG Export Plug-In . SVG Version: 6.00 Build 0)  -->
<!DOCTYPE svg PUBLIC "-//W3C//DTD SVG 1.1//EN" "http://www.w3.org/Graphics/SVG/1.1/DTD/svg11.dtd">
<svg version="1.1" id="Capa_1" xmlns="http://www.w3.org/2000/svg" xmlns:xlink="http://www.w3.org/1999/xlink" x="0px" y="0px"
	 width="554.625px" height="554.625px" viewBox="0 0 554.625 554.625" style="enable-background:new 0 0 554.625 554.625;"
	 xml:space="preserve">
<g>
	<path d="M468.562,420.75L468.562,420.75v-28.688c0-26.775-15.3-49.725-38.25-61.2V143.438v-9.562L315.562,0H105.188
		c-21.038,0-38.25,17.212-38.25,38.25v439.875c0,21.037,17.212,38.25,38.25,38.25h210.375V535.5c0,11.475,7.65,19.125,19.125,19.125
		h133.875c11.475,0,19.125-7.65,19.125-19.125v-95.625C487.688,428.4,480.037,420.75,468.562,420.75z M449.438,392.062v28.688
		h-95.625v-28.688c0-26.775,21.037-47.812,47.812-47.812S449.438,365.287,449.438,392.062z M315.562,28.688l89.888,105.188h-70.763
		c-9.562,0-19.125-9.562-19.125-19.125V28.688z M315.562,439.875v57.375H105.188c-9.562,0-19.125-7.65-19.125-19.125V38.25
		c0-9.562,7.65-19.125,19.125-19.125h191.25v95.625c0,21.038,17.213,38.25,38.25,38.25h76.5v172.125c-3.825,0-5.737,0-9.562,0
		c-36.338,0-66.938,30.6-66.938,66.938v28.688l0,0C323.213,420.75,315.562,428.4,315.562,439.875z M468.562,525.938
		c0,5.737-3.825,9.562-9.562,9.562H344.25c-5.737,0-9.562-3.825-9.562-9.562v-76.5c0-5.737,3.825-9.562,9.562-9.562H459
		c5.737,0,9.562,3.825,9.562,9.562V525.938z"/>
</g>
<g>
</g>
<g>
</g>
<g>
</g>
<g>
</g>
<g>
</g>
<g>
</g>
<g>
</g>
<g>
</g>
<g>
</g>
<g>
</g>
<g>
</g>
<g>
</g>
<g>
</g>
<g>
</g>
<g>
</g>
</svg>
